<?xml version="1.0" encoding="UTF-8"?><svg xmlns="http://www.w3.org/2000/svg" xmlns:xlink="http://www.w3.org/1999/xlink" fill-opacity="1" color-rendering="auto" color-interpolation="auto" text-rendering="auto" stroke="black" stroke-linecap="square" width="770" stroke-miterlimit="10" shape-rendering="auto" stroke-opacity="1" fill="black" stroke-dasharray="none" font-weight="normal" stroke-width="1" height="958" font-family="'Dialog'" font-style="normal" stroke-linejoin="miter" font-size="12px" stroke-dashoffset="0" image-rendering="auto">
  <!--Generated by ySVG 2.6-->
  <defs id="genericDefs"/>
  <g>
    <defs id="defs1">
      <linearGradient x1="484.1857" gradientUnits="userSpaceOnUse" x2="564.1857" y1="246.5" y2="286.5" id="linearGradient1" spreadMethod="reflect">
        <stop stop-opacity="1" stop-color="rgb(232,238,247)" offset="0%"/>
        <stop stop-opacity="1" stop-color="rgb(183,201,227)" offset="100%"/>
      </linearGradient>
      <linearGradient x1="463.6857" gradientUnits="userSpaceOnUse" x2="584.6857" y1="344.5" y2="384.5" id="linearGradient2" spreadMethod="reflect">
        <stop stop-opacity="1" stop-color="rgb(232,238,247)" offset="0%"/>
        <stop stop-opacity="1" stop-color="rgb(183,201,227)" offset="100%"/>
      </linearGradient>
      <linearGradient x1="463.6857" gradientUnits="userSpaceOnUse" x2="584.6857" y1="442.5" y2="482.5" id="linearGradient3" spreadMethod="reflect">
        <stop stop-opacity="1" stop-color="rgb(232,238,247)" offset="0%"/>
        <stop stop-opacity="1" stop-color="rgb(183,201,227)" offset="100%"/>
      </linearGradient>
      <linearGradient x1="463.6857" gradientUnits="userSpaceOnUse" x2="584.6857" y1="540.5" y2="580.5" id="linearGradient4" spreadMethod="reflect">
        <stop stop-opacity="1" stop-color="rgb(232,238,247)" offset="0%"/>
        <stop stop-opacity="1" stop-color="rgb(183,201,227)" offset="100%"/>
      </linearGradient>
      <linearGradient x1="484.1857" gradientUnits="userSpaceOnUse" x2="564.1857" y1="627.5" y2="667.5" id="linearGradient5" spreadMethod="reflect">
        <stop stop-opacity="1" stop-color="rgb(232,238,247)" offset="0%"/>
        <stop stop-opacity="1" stop-color="rgb(183,201,227)" offset="100%"/>
      </linearGradient>
      <linearGradient x1="696.6857" gradientUnits="userSpaceOnUse" x2="817.6857" y1="627.5" y2="667.5" id="linearGradient6" spreadMethod="reflect">
        <stop stop-opacity="1" stop-color="rgb(232,238,247)" offset="0%"/>
        <stop stop-opacity="1" stop-color="rgb(183,201,227)" offset="100%"/>
      </linearGradient>
      <linearGradient x1="463.6857" gradientUnits="userSpaceOnUse" x2="584.6857" y1="697.5" y2="737.5" id="linearGradient7" spreadMethod="reflect">
        <stop stop-opacity="1" stop-color="rgb(232,238,247)" offset="0%"/>
        <stop stop-opacity="1" stop-color="rgb(183,201,227)" offset="100%"/>
      </linearGradient>
      <linearGradient x1="463.6857" gradientUnits="userSpaceOnUse" x2="584.6857" y1="887.5" y2="927.5" id="linearGradient8" spreadMethod="reflect">
        <stop stop-opacity="1" stop-color="rgb(232,238,247)" offset="0%"/>
        <stop stop-opacity="1" stop-color="rgb(183,201,227)" offset="100%"/>
      </linearGradient>
      <linearGradient x1="484.1857" gradientUnits="userSpaceOnUse" x2="564.1857" y1="792.5" y2="832.5" id="linearGradient9" spreadMethod="reflect">
        <stop stop-opacity="1" stop-color="rgb(232,238,247)" offset="0%"/>
        <stop stop-opacity="1" stop-color="rgb(183,201,227)" offset="100%"/>
      </linearGradient>
      <linearGradient x1="484.1857" gradientUnits="userSpaceOnUse" x2="564.1857" y1="969.5" y2="1009.5" id="linearGradient10" spreadMethod="reflect">
        <stop stop-opacity="1" stop-color="rgb(232,238,247)" offset="0%"/>
        <stop stop-opacity="1" stop-color="rgb(183,201,227)" offset="100%"/>
      </linearGradient>
      <linearGradient x1="463.6857" gradientUnits="userSpaceOnUse" x2="584.6857" y1="1051.5" y2="1091.5" id="linearGradient11" spreadMethod="reflect">
        <stop stop-opacity="1" stop-color="rgb(232,238,247)" offset="0%"/>
        <stop stop-opacity="1" stop-color="rgb(183,201,227)" offset="100%"/>
      </linearGradient>
      <linearGradient x1="484.1857" gradientUnits="userSpaceOnUse" x2="564.1857" y1="1133.5" y2="1173.5" id="linearGradient12" spreadMethod="reflect">
        <stop stop-opacity="1" stop-color="rgb(232,238,247)" offset="0%"/>
        <stop stop-opacity="1" stop-color="rgb(183,201,227)" offset="100%"/>
      </linearGradient>
      <linearGradient x1="78.5" gradientUnits="userSpaceOnUse" x2="199.5" y1="342" y2="382" id="linearGradient13" spreadMethod="reflect">
        <stop stop-opacity="1" stop-color="rgb(232,238,247)" offset="0%"/>
        <stop stop-opacity="1" stop-color="rgb(183,201,227)" offset="100%"/>
      </linearGradient>
      <linearGradient x1="78.5" gradientUnits="userSpaceOnUse" x2="199.5" y1="419.5" y2="459.5" id="linearGradient14" spreadMethod="reflect">
        <stop stop-opacity="1" stop-color="rgb(232,238,247)" offset="0%"/>
        <stop stop-opacity="1" stop-color="rgb(183,201,227)" offset="100%"/>
      </linearGradient>
      <linearGradient x1="99" gradientUnits="userSpaceOnUse" x2="179" y1="246.5" y2="286.5" id="linearGradient15" spreadMethod="reflect">
        <stop stop-opacity="1" stop-color="rgb(232,238,247)" offset="0%"/>
        <stop stop-opacity="1" stop-color="rgb(183,201,227)" offset="100%"/>
      </linearGradient>
      <linearGradient x1="78.5" gradientUnits="userSpaceOnUse" x2="199.5" y1="500" y2="540" id="linearGradient16" spreadMethod="reflect">
        <stop stop-opacity="1" stop-color="rgb(232,238,247)" offset="0%"/>
        <stop stop-opacity="1" stop-color="rgb(183,201,227)" offset="100%"/>
      </linearGradient>
      <linearGradient x1="78.5" gradientUnits="userSpaceOnUse" x2="199.5" y1="580.5" y2="620.5" id="linearGradient17" spreadMethod="reflect">
        <stop stop-opacity="1" stop-color="rgb(232,238,247)" offset="0%"/>
        <stop stop-opacity="1" stop-color="rgb(183,201,227)" offset="100%"/>
      </linearGradient>
      <linearGradient x1="78.5" gradientUnits="userSpaceOnUse" x2="199.5" y1="661" y2="701" id="linearGradient18" spreadMethod="reflect">
        <stop stop-opacity="1" stop-color="rgb(232,238,247)" offset="0%"/>
        <stop stop-opacity="1" stop-color="rgb(183,201,227)" offset="100%"/>
      </linearGradient>
      <linearGradient x1="99" gradientUnits="userSpaceOnUse" x2="179" y1="755" y2="795" id="linearGradient19" spreadMethod="reflect">
        <stop stop-opacity="1" stop-color="rgb(232,238,247)" offset="0%"/>
        <stop stop-opacity="1" stop-color="rgb(183,201,227)" offset="100%"/>
      </linearGradient>
      <clipPath clipPathUnits="userSpaceOnUse" id="clipPath1">
        <path d="M0 0 L770 0 L770 958 L0 958 L0 0 Z"/>
      </clipPath>
      <clipPath clipPathUnits="userSpaceOnUse" id="clipPath2">
        <path d="M63 231 L833 231 L833 1189 L63 1189 L63 231 Z"/>
      </clipPath>
    </defs>
    <g fill="white" text-rendering="geometricPrecision" shape-rendering="geometricPrecision" transform="translate(-63,-231)" stroke="white">
      <rect x="63" width="770" height="958" y="231" clip-path="url(#clipPath2)" stroke="none"/>
    </g>
    <g fill="url(#linearGradient1)" text-rendering="geometricPrecision" shape-rendering="geometricPrecision" transform="matrix(1,0,0,1,-63,-231)" stroke="url(#linearGradient1)">
      <circle r="20" clip-path="url(#clipPath2)" cx="524.1857" cy="266.5" stroke="none"/>
    </g>
    <g text-rendering="geometricPrecision" stroke-miterlimit="1.45" shape-rendering="geometricPrecision" transform="matrix(1,0,0,1,-63,-231)" stroke-linecap="butt">
      <circle fill="none" r="20" clip-path="url(#clipPath2)" cx="524.1857" cy="266.5"/>
    </g>
    <g fill="url(#linearGradient2)" text-rendering="geometricPrecision" shape-rendering="geometricPrecision" transform="matrix(1,0,0,1,-63,-231)" stroke="url(#linearGradient2)">
      <path d="M463.6857 344.5 L584.6857 344.5 L584.6857 384.5 L463.6857 384.5 Z" stroke="none" clip-path="url(#clipPath2)"/>
    </g>
    <g text-rendering="geometricPrecision" stroke-miterlimit="1.45" shape-rendering="geometricPrecision" transform="matrix(1,0,0,1,-63,-231)" stroke-linecap="butt">
      <path fill="none" d="M463.6857 344.5 L584.6857 344.5 L584.6857 384.5 L463.6857 384.5 Z" clip-path="url(#clipPath2)"/>
      <text x="481.4474" xml:space="preserve" y="360.984" clip-path="url(#clipPath2)" font-family="sans-serif" stroke="none">add file to local</text>
      <text x="509.6536" xml:space="preserve" y="377.3281" clip-path="url(#clipPath2)" font-family="sans-serif" stroke="none">store</text>
    </g>
    <g fill="url(#linearGradient3)" text-rendering="geometricPrecision" shape-rendering="geometricPrecision" transform="matrix(1,0,0,1,-63,-231)" stroke="url(#linearGradient3)">
      <path d="M463.6857 442.5 L584.6857 442.5 L584.6857 482.5 L463.6857 482.5 Z" stroke="none" clip-path="url(#clipPath2)"/>
    </g>
    <g text-rendering="geometricPrecision" stroke-miterlimit="1.45" shape-rendering="geometricPrecision" transform="matrix(1,0,0,1,-63,-231)" stroke-linecap="butt">
      <path fill="none" d="M463.6857 442.5 L584.6857 442.5 L584.6857 482.5 L463.6857 482.5 Z" clip-path="url(#clipPath2)"/>
      <text x="495.9795" xml:space="preserve" y="458.984" clip-path="url(#clipPath2)" font-family="sans-serif" stroke="none">add file to</text>
      <text x="483.5594" xml:space="preserve" y="475.3281" clip-path="url(#clipPath2)" font-family="sans-serif" stroke="none"> upload queue</text>
    </g>
    <g fill="url(#linearGradient4)" text-rendering="geometricPrecision" shape-rendering="geometricPrecision" transform="matrix(1,0,0,1,-63,-231)" stroke="url(#linearGradient4)">
      <path d="M463.6857 540.5 L584.6857 540.5 L584.6857 580.5 L463.6857 580.5 Z" stroke="none" clip-path="url(#clipPath2)"/>
    </g>
    <g text-rendering="geometricPrecision" stroke-miterlimit="1.45" shape-rendering="geometricPrecision" transform="matrix(1,0,0,1,-63,-231)" stroke-linecap="butt">
      <path fill="none" d="M463.6857 540.5 L584.6857 540.5 L584.6857 580.5 L463.6857 580.5 Z" clip-path="url(#clipPath2)"/>
      <text x="494.4495" xml:space="preserve" y="565.156" clip-path="url(#clipPath2)" font-family="sans-serif" stroke="none">upload file</text>
    </g>
    <g fill="url(#linearGradient5)" text-rendering="geometricPrecision" shape-rendering="geometricPrecision" transform="matrix(1,0,0,1,-63,-231)" stroke="url(#linearGradient5)">
      <path d="M524.1857 627.5 L564.1857 647.5 L524.1857 667.5 L484.1857 647.5 Z" stroke="none" clip-path="url(#clipPath2)"/>
    </g>
    <g text-rendering="geometricPrecision" stroke-miterlimit="1.45" shape-rendering="geometricPrecision" transform="matrix(1,0,0,1,-63,-231)" stroke-linecap="butt">
      <path fill="none" d="M524.1857 627.5 L564.1857 647.5 L524.1857 667.5 L484.1857 647.5 Z" clip-path="url(#clipPath2)"/>
      <text x="408.1256" xml:space="preserve" y="652.156" clip-path="url(#clipPath2)" font-family="sans-serif" stroke="none">successful?</text>
    </g>
    <g fill="url(#linearGradient6)" text-rendering="geometricPrecision" shape-rendering="geometricPrecision" transform="matrix(1,0,0,1,-63,-231)" stroke="url(#linearGradient6)">
      <path d="M696.6857 627.5 L817.6857 627.5 L817.6857 667.5 L696.6857 667.5 Z" stroke="none" clip-path="url(#clipPath2)"/>
    </g>
    <g text-rendering="geometricPrecision" stroke-miterlimit="1.45" shape-rendering="geometricPrecision" transform="matrix(1,0,0,1,-63,-231)" stroke-linecap="butt">
      <path fill="none" d="M696.6857 627.5 L817.6857 627.5 L817.6857 667.5 L696.6857 667.5 Z" clip-path="url(#clipPath2)"/>
      <text x="741.5856" xml:space="preserve" y="652.156" clip-path="url(#clipPath2)" font-family="sans-serif" stroke="none">failed</text>
    </g>
    <g fill="url(#linearGradient7)" text-rendering="geometricPrecision" shape-rendering="geometricPrecision" transform="matrix(1,0,0,1,-63,-231)" stroke="url(#linearGradient7)">
      <path d="M463.6857 697.5 L584.6857 697.5 L584.6857 737.5 L463.6857 737.5 Z" stroke="none" clip-path="url(#clipPath2)"/>
    </g>
    <g text-rendering="geometricPrecision" stroke-miterlimit="1.45" shape-rendering="geometricPrecision" transform="matrix(1,0,0,1,-63,-231)" stroke-linecap="butt">
      <path fill="none" d="M463.6857 697.5 L584.6857 697.5 L584.6857 737.5 L463.6857 737.5 Z" clip-path="url(#clipPath2)"/>
      <text x="476.7014" xml:space="preserve" y="722.156" clip-path="url(#clipPath2)" font-family="sans-serif" stroke="none">upload complete</text>
    </g>
    <g fill="url(#linearGradient8)" text-rendering="geometricPrecision" shape-rendering="geometricPrecision" transform="matrix(1,0,0,1,-63,-231)" stroke="url(#linearGradient8)">
      <path d="M463.6857 887.5 L584.6857 887.5 L584.6857 927.5 L463.6857 927.5 Z" stroke="none" clip-path="url(#clipPath2)"/>
    </g>
    <g text-rendering="geometricPrecision" stroke-miterlimit="1.45" shape-rendering="geometricPrecision" transform="matrix(1,0,0,1,-63,-231)" stroke-linecap="butt">
      <path fill="none" d="M463.6857 887.5 L584.6857 887.5 L584.6857 927.5 L463.6857 927.5 Z" clip-path="url(#clipPath2)"/>
      <text x="502.8915" xml:space="preserve" y="912.156" clip-path="url(#clipPath2)" font-family="sans-serif" stroke="none">convert</text>
    </g>
    <g fill="url(#linearGradient9)" text-rendering="geometricPrecision" shape-rendering="geometricPrecision" transform="matrix(1,0,0,1,-63,-231)" stroke="url(#linearGradient9)">
      <path d="M524.1857 792.5 L564.1857 812.5 L524.1857 832.5 L484.1857 812.5 Z" stroke="none" clip-path="url(#clipPath2)"/>
    </g>
    <g text-rendering="geometricPrecision" stroke-miterlimit="1.45" shape-rendering="geometricPrecision" transform="matrix(1,0,0,1,-63,-231)" stroke-linecap="butt">
      <path fill="none" d="M524.1857 792.5 L564.1857 812.5 L524.1857 832.5 L484.1857 812.5 Z" clip-path="url(#clipPath2)"/>
      <text x="581.3654" xml:space="preserve" y="817.156" clip-path="url(#clipPath2)" font-family="sans-serif" stroke="none">needs conversion?</text>
    </g>
    <g fill="url(#linearGradient10)" text-rendering="geometricPrecision" shape-rendering="geometricPrecision" transform="matrix(1,0,0,1,-63,-231)" stroke="url(#linearGradient10)">
      <path d="M524.1857 969.5 L564.1857 989.5 L524.1857 1009.5 L484.1857 989.5 Z" stroke="none" clip-path="url(#clipPath2)"/>
    </g>
    <g text-rendering="geometricPrecision" stroke-miterlimit="1.45" shape-rendering="geometricPrecision" transform="matrix(1,0,0,1,-63,-231)" stroke-linecap="butt">
      <path fill="none" d="M524.1857 969.5 L564.1857 989.5 L524.1857 1009.5 L484.1857 989.5 Z" clip-path="url(#clipPath2)"/>
      <text x="415.3893" xml:space="preserve" y="994.156" clip-path="url(#clipPath2)" font-family="sans-serif" stroke="none">successful?</text>
    </g>
    <g fill="url(#linearGradient11)" text-rendering="geometricPrecision" shape-rendering="geometricPrecision" transform="matrix(1,0,0,1,-63,-231)" stroke="url(#linearGradient11)">
      <path d="M463.6857 1051.5 L584.6857 1051.5 L584.6857 1091.5 L463.6857 1091.5 Z" stroke="none" clip-path="url(#clipPath2)"/>
    </g>
    <g text-rendering="geometricPrecision" stroke-miterlimit="1.45" shape-rendering="geometricPrecision" transform="matrix(1,0,0,1,-63,-231)" stroke-linecap="butt">
      <path fill="none" d="M463.6857 1051.5 L584.6857 1051.5 L584.6857 1091.5 L463.6857 1091.5 Z" clip-path="url(#clipPath2)"/>
      <text x="495.8175" xml:space="preserve" y="1076.156" clip-path="url(#clipPath2)" font-family="sans-serif" stroke="none">converted</text>
    </g>
    <g fill="url(#linearGradient12)" text-rendering="geometricPrecision" shape-rendering="geometricPrecision" transform="matrix(1,0,0,1,-63,-231)" stroke="url(#linearGradient12)">
      <rect x="484.1857" y="1133.5" clip-path="url(#clipPath2)" width="80" rx="20" ry="20" height="40" stroke="none"/>
    </g>
    <g text-rendering="geometricPrecision" stroke-miterlimit="1.45" shape-rendering="geometricPrecision" transform="matrix(1,0,0,1,-63,-231)" stroke-linecap="butt">
      <rect x="484.1857" y="1133.5" clip-path="url(#clipPath2)" fill="none" width="80" rx="20" ry="20" height="40"/>
      <text x="497.8935" xml:space="preserve" y="1158.156" clip-path="url(#clipPath2)" font-family="sans-serif" stroke="none">complete</text>
    </g>
    <g fill="url(#linearGradient13)" text-rendering="geometricPrecision" shape-rendering="geometricPrecision" transform="matrix(1,0,0,1,-63,-231)" stroke="url(#linearGradient13)">
      <path d="M78.5 342 L199.5 342 L199.5 382 L78.5 382 Z" stroke="none" clip-path="url(#clipPath2)"/>
    </g>
    <g text-rendering="geometricPrecision" stroke-miterlimit="1.45" shape-rendering="geometricPrecision" transform="matrix(1,0,0,1,-63,-231)" stroke-linecap="butt">
      <path fill="none" d="M78.5 342 L199.5 342 L199.5 382 L78.5 382 Z" clip-path="url(#clipPath2)"/>
      <text x="123.0279" xml:space="preserve" y="358.484" clip-path="url(#clipPath2)" font-family="sans-serif" stroke="none">open </text>
      <text x="100.8457" xml:space="preserve" y="374.8281" clip-path="url(#clipPath2)" font-family="sans-serif" stroke="none">import dialog</text>
    </g>
    <g fill="url(#linearGradient14)" text-rendering="geometricPrecision" shape-rendering="geometricPrecision" transform="matrix(1,0,0,1,-63,-231)" stroke="url(#linearGradient14)">
      <path d="M78.5 419.5 L199.5 419.5 L199.5 459.5 L78.5 459.5 Z" stroke="none" clip-path="url(#clipPath2)"/>
    </g>
    <g text-rendering="geometricPrecision" stroke-miterlimit="1.45" shape-rendering="geometricPrecision" transform="matrix(1,0,0,1,-63,-231)" stroke-linecap="butt">
      <path fill="none" d="M78.5 419.5 L199.5 419.5 L199.5 459.5 L78.5 459.5 Z" clip-path="url(#clipPath2)"/>
      <text x="109.7858" xml:space="preserve" y="444.156" clip-path="url(#clipPath2)" font-family="sans-serif" stroke="none">select files</text>
    </g>
    <g fill="url(#linearGradient15)" text-rendering="geometricPrecision" shape-rendering="geometricPrecision" transform="matrix(1,0,0,1,-63,-231)" stroke="url(#linearGradient15)">
      <circle r="20" clip-path="url(#clipPath2)" cx="139" cy="266.5" stroke="none"/>
    </g>
    <g text-rendering="geometricPrecision" stroke-miterlimit="1.45" shape-rendering="geometricPrecision" transform="matrix(1,0,0,1,-63,-231)" stroke-linecap="butt">
      <circle fill="none" r="20" clip-path="url(#clipPath2)" cx="139" cy="266.5"/>
    </g>
    <g fill="url(#linearGradient16)" text-rendering="geometricPrecision" shape-rendering="geometricPrecision" transform="matrix(1,0,0,1,-63,-231)" stroke="url(#linearGradient16)">
      <path d="M78.5 500 L199.5 500 L199.5 540 L78.5 540 Z" stroke="none" clip-path="url(#clipPath2)"/>
    </g>
    <g text-rendering="geometricPrecision" stroke-miterlimit="1.45" shape-rendering="geometricPrecision" transform="matrix(1,0,0,1,-63,-231)" stroke-linecap="butt">
      <path fill="none" d="M78.5 500 L199.5 500 L199.5 540 L78.5 540 Z" clip-path="url(#clipPath2)"/>
      <text x="104.7578" xml:space="preserve" y="524.656" clip-path="url(#clipPath2)" font-family="sans-serif" stroke="none">start upload</text>
    </g>
    <g fill="url(#linearGradient17)" text-rendering="geometricPrecision" shape-rendering="geometricPrecision" transform="matrix(1,0,0,1,-63,-231)" stroke="url(#linearGradient17)">
      <path d="M78.5 580.5 L199.5 580.5 L199.5 620.5 L78.5 620.5 Z" stroke="none" clip-path="url(#clipPath2)"/>
    </g>
    <g text-rendering="geometricPrecision" stroke-miterlimit="1.45" shape-rendering="geometricPrecision" transform="matrix(1,0,0,1,-63,-231)" stroke-linecap="butt">
      <path fill="none" d="M78.5 580.5 L199.5 580.5 L199.5 620.5 L78.5 620.5 Z" clip-path="url(#clipPath2)"/>
      <text x="105.6518" xml:space="preserve" y="605.156" clip-path="url(#clipPath2)" font-family="sans-serif" stroke="none">close dialog</text>
    </g>
    <g fill="url(#linearGradient18)" text-rendering="geometricPrecision" shape-rendering="geometricPrecision" transform="matrix(1,0,0,1,-63,-231)" stroke="url(#linearGradient18)">
      <path d="M78.5 661 L199.5 661 L199.5 701 L78.5 701 Z" stroke="none" clip-path="url(#clipPath2)"/>
    </g>
    <g text-rendering="geometricPrecision" stroke-miterlimit="1.45" shape-rendering="geometricPrecision" transform="matrix(1,0,0,1,-63,-231)" stroke-linecap="butt">
      <path fill="none" d="M78.5 661 L199.5 661 L199.5 701 L78.5 701 Z" clip-path="url(#clipPath2)"/>
      <text x="104.2117" xml:space="preserve" y="685.656" clip-path="url(#clipPath2)" font-family="sans-serif" stroke="none">process files</text>
    </g>
    <g fill="url(#linearGradient19)" text-rendering="geometricPrecision" shape-rendering="geometricPrecision" transform="matrix(1,0,0,1,-63,-231)" stroke="url(#linearGradient19)">
      <rect x="99" y="755" clip-path="url(#clipPath2)" width="80" rx="20" ry="20" height="40" stroke="none"/>
    </g>
    <g text-rendering="geometricPrecision" stroke-miterlimit="1.45" shape-rendering="geometricPrecision" transform="matrix(1,0,0,1,-63,-231)" stroke-linecap="butt">
      <rect x="99" y="755" clip-path="url(#clipPath2)" fill="none" width="80" rx="20" ry="20" height="40"/>
    </g>
    <g text-rendering="geometricPrecision" stroke-miterlimit="1.45" shape-rendering="geometricPrecision" transform="matrix(1,0,0,1,-63,-231)" stroke-linecap="butt">
      <path fill="none" d="M524.1857 286.4541 L524.1857 336.4931" clip-path="url(#clipPath2)"/>
    </g>
    <g text-rendering="geometricPrecision" stroke-miterlimit="1.45" shape-rendering="geometricPrecision" transform="matrix(1,0,0,1,-63,-231)" stroke-linecap="butt">
      <path d="M524.1857 344.4931 L529.1857 332.4931 L524.1857 335.4931 L519.1857 332.4931 Z" stroke="none" clip-path="url(#clipPath2)"/>
      <path fill="none" d="M524.1857 384.4541 L524.1857 434.4931" clip-path="url(#clipPath2)"/>
      <path d="M524.1857 442.4931 L529.1857 430.4931 L524.1857 433.4931 L519.1857 430.4931 Z" clip-path="url(#clipPath2)" stroke="none"/>
      <path fill="none" d="M524.1857 482.4541 L524.1857 532.4931" clip-path="url(#clipPath2)"/>
      <path d="M524.1857 540.4931 L529.1857 528.4931 L524.1857 531.4931 L519.1857 528.4931 Z" clip-path="url(#clipPath2)" stroke="none"/>
      <path fill="none" d="M524.1857 580.5083 L524.1857 619.5137" clip-path="url(#clipPath2)"/>
      <path d="M524.1857 627.5137 L529.1857 615.5137 L524.1857 618.5137 L519.1857 615.5137 Z" clip-path="url(#clipPath2)" stroke="none"/>
      <path fill="none" d="M564.2042 647.5 L688.6434 647.5" clip-path="url(#clipPath2)"/>
      <path d="M696.6434 647.5 L684.6434 642.5 L687.6434 647.5 L684.6434 652.5 Z" clip-path="url(#clipPath2)" stroke="none"/>
      <path fill="none" d="M524.1857 667.4951 L524.1857 689.5273" clip-path="url(#clipPath2)"/>
      <path d="M524.1857 697.5273 L529.1857 685.5273 L524.1857 688.5273 L519.1857 685.5273 Z" clip-path="url(#clipPath2)" stroke="none"/>
      <path fill="none" d="M524.1857 737.4927 L524.1857 784.4663" clip-path="url(#clipPath2)"/>
      <path d="M524.1857 792.4663 L529.1857 780.4663 L524.1857 783.4663 L519.1857 780.4663 Z" clip-path="url(#clipPath2)" stroke="none"/>
      <path fill="none" d="M524.1857 832.4927 L524.1857 879.4663" clip-path="url(#clipPath2)"/>
      <path d="M524.1857 887.4663 L529.1857 875.4663 L524.1857 878.4663 L519.1857 875.4663 Z" clip-path="url(#clipPath2)" stroke="none"/>
      <path fill="none" d="M524.1857 927.4795 L524.1857 961.4827" clip-path="url(#clipPath2)"/>
      <path d="M524.1857 969.4827 L529.1857 957.4827 L524.1857 960.4827 L519.1857 957.4827 Z" clip-path="url(#clipPath2)" stroke="none"/>
      <path fill="none" d="M564.2042 989.5 L757.1857 989.5 L757.1857 675.4973" clip-path="url(#clipPath2)"/>
      <path d="M757.1857 667.4973 L752.1857 679.4973 L757.1857 676.4973 L762.1857 679.4973 Z" clip-path="url(#clipPath2)" stroke="none"/>
      <text x="571.1857" xml:space="preserve" y="1003.8868" clip-path="url(#clipPath2)" font-family="sans-serif" stroke="none">n</text>
      <path fill="none" d="M524.1857 1009.4795 L524.1857 1043.4827" clip-path="url(#clipPath2)"/>
      <path d="M524.1857 1051.4827 L529.1857 1039.4827 L524.1857 1042.4827 L519.1857 1039.4827 Z" clip-path="url(#clipPath2)" stroke="none"/>
      <text x="511.7304" xml:space="preserve" y="1028.8248" clip-path="url(#clipPath2)" font-family="sans-serif" stroke="none">y</text>
      <path fill="none" d="M524.1857 1091.4795 L524.1857 1125.4827" clip-path="url(#clipPath2)"/>
      <path d="M524.1857 1133.4827 L529.1857 1121.4827 L524.1857 1124.4827 L519.1857 1121.4827 Z" clip-path="url(#clipPath2)" stroke="none"/>
      <path fill="none" d="M484.201 812.5 L393.6857 812.5 L393.6857 1162.5 L478.3037 1162.5" clip-path="url(#clipPath2)"/>
      <path d="M486.3037 1162.5 L474.3037 1157.5 L477.3037 1162.5 L474.3037 1167.5 Z" clip-path="url(#clipPath2)" stroke="none"/>
      <path fill="none" d="M139 382.0183 L139 411.4881" clip-path="url(#clipPath2)"/>
      <path d="M139 419.4881 L144 407.4881 L139 410.4881 L134 407.4881 Z" clip-path="url(#clipPath2)" stroke="none"/>
      <path fill="none" d="M139 286.5046 L139 333.9834" clip-path="url(#clipPath2)"/>
      <path d="M139 341.9834 L144 329.9834 L139 332.9834 L134 329.9834 Z" clip-path="url(#clipPath2)" stroke="none"/>
      <path fill="none" d="M139 459.5071 L139 492.0031" clip-path="url(#clipPath2)"/>
      <path d="M139 500.0031 L144 488.0031 L139 491.0031 L134 488.0031 Z" clip-path="url(#clipPath2)" stroke="none"/>
      <path fill="none" d="M139 540.0071 L139 572.5031" clip-path="url(#clipPath2)"/>
      <path d="M139 580.5031 L144 568.5031 L139 571.5031 L134 568.5031 Z" clip-path="url(#clipPath2)" stroke="none"/>
      <path fill="none" d="M139 620.5071 L139 653.0031" clip-path="url(#clipPath2)"/>
      <path d="M139 661.0031 L144 649.0031 L139 652.0031 L134 649.0031 Z" clip-path="url(#clipPath2)" stroke="none"/>
      <path fill="none" d="M199.5101 681 L312.6857 681 L312.6857 266.5 L496.1768 266.5" clip-path="url(#clipPath2)"/>
      <path d="M504.1768 266.5 L492.1768 261.5 L495.1768 266.5 L492.1768 271.5 Z" clip-path="url(#clipPath2)" stroke="none"/>
      <text x="243.0057" xml:space="preserve" y="715.656" clip-path="url(#clipPath2)" font-family="sans-serif" stroke="none">for each file</text>
      <path fill="none" d="M139 700.9658 L139 747.0093" clip-path="url(#clipPath2)"/>
      <path d="M139 755.0093 L144 743.0093 L139 746.0093 L134 743.0093 Z" clip-path="url(#clipPath2)" stroke="none"/>
    </g>
  </g>
</svg>
