<?xml version="1.0" encoding="UTF-8"?><svg xmlns="http://www.w3.org/2000/svg" xmlns:xlink="http://www.w3.org/1999/xlink" fill-opacity="1" color-rendering="auto" color-interpolation="auto" text-rendering="auto" stroke="black" stroke-linecap="square" width="1030" stroke-miterlimit="10" shape-rendering="auto" stroke-opacity="1" fill="black" stroke-dasharray="none" font-weight="normal" stroke-width="1" height="268" font-family="'Dialog'" font-style="normal" stroke-linejoin="miter" font-size="12px" stroke-dashoffset="0" image-rendering="auto">
  <!--Generated by ySVG 2.6-->
  <defs id="genericDefs"/>
  <g>
    <defs id="defs1">
      <clipPath clipPathUnits="userSpaceOnUse" id="clipPath1">
        <path d="M0 0 L1030 0 L1030 268 L0 268 L0 0 Z"/>
      </clipPath>
      <clipPath clipPathUnits="userSpaceOnUse" id="clipPath2">
        <path d="M411 248 L1441 248 L1441 516 L411 516 L411 248 Z"/>
      </clipPath>
    </defs>
    <g fill="white" text-rendering="geometricPrecision" shape-rendering="geometricPrecision" transform="translate(-411,-248)" stroke="white">
      <rect x="411" width="1030" height="268" y="248" clip-path="url(#clipPath2)" stroke="none"/>
    </g>
    <g fill="rgb(52,122,173)" text-rendering="geometricPrecision" shape-rendering="geometricPrecision" transform="matrix(1,0,0,1,-411,-248)" stroke="rgb(52,122,173)">
      <rect x="411.68" width="106.0714" height="90" y="376.1616" clip-path="url(#clipPath2)" stroke="none"/>
    </g>
    <g stroke-linecap="butt" transform="matrix(1,0,0,1,-411,-248)" fill="rgb(9,9,9)" text-rendering="geometricPrecision" shape-rendering="geometricPrecision" stroke="rgb(9,9,9)" stroke-miterlimit="1.45">
      <rect fill="none" x="411.68" width="106.0714" height="90" y="376.1616" clip-path="url(#clipPath2)"/>
      <text x="426.7616" y="425.3159" clip-path="url(#clipPath2)" fill="white" font-family="sans-serif" stroke="none" xml:space="preserve">Datenimport</text>
    </g>
    <g fill="rgb(232,134,39)" text-rendering="geometricPrecision" shape-rendering="geometricPrecision" transform="matrix(1,0,0,1,-411,-248)" stroke="rgb(232,134,39)">
      <rect x="731.36" width="106.0714" height="90" y="248.1232" clip-path="url(#clipPath2)" stroke="none"/>
    </g>
    <g stroke-linecap="butt" transform="matrix(1,0,0,1,-411,-248)" fill="rgb(9,9,9)" text-rendering="geometricPrecision" shape-rendering="geometricPrecision" stroke="rgb(9,9,9)" stroke-miterlimit="1.45">
      <rect fill="none" x="731.36" width="106.0714" height="90" y="248.1232" clip-path="url(#clipPath2)"/>
      <text x="765.4406" y="297.2775" clip-path="url(#clipPath2)" fill="white" font-family="sans-serif" stroke="none" xml:space="preserve">aTrain</text>
      <rect x="565.02" y="248.1232" clip-path="url(#clipPath2)" fill="none" width="106.0714" stroke-dasharray="6,2" height="90" stroke="rgb(122,122,122)"/>
      <text x="599.6895" y="290.2931" clip-path="url(#clipPath2)" fill="black" font-family="sans-serif" stroke="none" xml:space="preserve">Plugin</text>
      <text x="577.6202" y="304.2619" clip-path="url(#clipPath2)" fill="black" font-family="sans-serif" stroke="none" xml:space="preserve">Konfiguration</text>
      <path fill="none" d="M577.0557 376.1616 L644.0557 376.1616 L644.0557 391.1616 L659.0557 391.1616 L659.0557 466.1616 L577.0557 466.1616 Z" clip-path="url(#clipPath2)" stroke="black"/>
      <path fill="none" d="M644.0557 376.1616 L644.0557 391.1616 L659.0557 391.1616 Z" clip-path="url(#clipPath2)" fill-rule="evenodd" stroke="black"/>
      <text x="586.0518" y="425.3159" clip-path="url(#clipPath2)" fill="black" font-family="sans-serif" stroke="none" xml:space="preserve">audio.mp3</text>
    </g>
    <g fill="rgb(52,122,173)" text-rendering="geometricPrecision" shape-rendering="geometricPrecision" transform="matrix(1,0,0,1,-411,-248)" stroke="rgb(52,122,173)">
      <rect x="731.36" width="106.0714" height="90" y="377.1616" clip-path="url(#clipPath2)" stroke="none"/>
    </g>
    <g stroke-linecap="butt" transform="matrix(1,0,0,1,-411,-248)" fill="rgb(9,9,9)" text-rendering="geometricPrecision" shape-rendering="geometricPrecision" stroke="rgb(9,9,9)" stroke-miterlimit="1.45">
      <rect fill="none" x="731.36" width="106.0714" height="90" y="377.1616" clip-path="url(#clipPath2)"/>
      <text x="764.0871" y="419.3315" clip-path="url(#clipPath2)" fill="white" font-family="sans-serif" stroke="none" xml:space="preserve">Daten-</text>
      <text x="739.7062" y="433.3003" clip-path="url(#clipPath2)" fill="white" font-family="sans-serif" stroke="none" xml:space="preserve">transformation</text>
      <rect x="909.7357" y="348.4488" clip-path="url(#clipPath2)" fill="none" width="352.4512" stroke-dasharray="6,2" height="147.4256" stroke="rgb(122,122,122)"/>
      <path fill="none" d="M930.1115 377.1616 L997.1115 377.1616 L997.1115 392.1616 L1012.1115 392.1616 L1012.1115 467.1616 L930.1115 467.1616 Z" clip-path="url(#clipPath2)" stroke="black"/>
      <path fill="none" d="M997.1115 377.1616 L997.1115 392.1616 L1012.1115 392.1616 Z" clip-path="url(#clipPath2)" fill-rule="evenodd" stroke="black"/>
      <text x="939.1075" y="426.3159" clip-path="url(#clipPath2)" fill="black" font-family="sans-serif" stroke="none" xml:space="preserve">audio.mp3</text>
      <path fill="none" d="M1042.1115 377.1616 L1109.1115 377.1616 L1109.1115 392.1616 L1124.1115 392.1616 L1124.1115 467.1616 L1042.1115 467.1616 Z" clip-path="url(#clipPath2)" stroke="black"/>
      <path fill="none" d="M1109.1115 377.1616 L1109.1115 392.1616 L1124.1115 392.1616 Z" clip-path="url(#clipPath2)" fill-rule="evenodd" stroke="black"/>
      <text x="1054.0929" y="419.3315" clip-path="url(#clipPath2)" fill="black" font-family="sans-serif" stroke="none" xml:space="preserve">transcript</text>
      <text x="1072.9484" y="433.3003" clip-path="url(#clipPath2)" fill="black" font-family="sans-serif" stroke="none" xml:space="preserve">.txt</text>
      <path fill="none" d="M1154.1115 377.1616 L1221.1115 377.1616 L1221.1115 392.1616 L1236.1115 392.1616 L1236.1115 467.1616 L1154.1115 467.1616 Z" clip-path="url(#clipPath2)" stroke="black"/>
      <path fill="none" d="M1221.1115 377.1616 L1221.1115 392.1616 L1236.1115 392.1616 Z" clip-path="url(#clipPath2)" fill-rule="evenodd" stroke="black"/>
      <text x="1165.3722" y="426.3159" clip-path="url(#clipPath2)" fill="black" font-family="sans-serif" stroke="none" xml:space="preserve">meta.json</text>
    </g>
    <g fill="rgb(52,122,173)" text-rendering="geometricPrecision" shape-rendering="geometricPrecision" transform="matrix(1,0,0,1,-411,-248)" stroke="rgb(52,122,173)">
      <rect x="1334.4912" width="106.0714" height="90" y="377.1616" clip-path="url(#clipPath2)" stroke="none"/>
    </g>
    <g stroke-linecap="butt" transform="matrix(1,0,0,1,-411,-248)" fill="rgb(9,9,9)" text-rendering="geometricPrecision" shape-rendering="geometricPrecision" stroke="rgb(9,9,9)" stroke-miterlimit="1.45">
      <rect fill="none" x="1334.4912" width="106.0714" height="90" y="377.1616" clip-path="url(#clipPath2)"/>
      <text x="1367.2183" y="419.3315" clip-path="url(#clipPath2)" fill="white" font-family="sans-serif" stroke="none" xml:space="preserve">Daten-</text>
      <text x="1350.5601" y="433.3003" clip-path="url(#clipPath2)" fill="white" font-family="sans-serif" stroke="none" xml:space="preserve">speicherung</text>
      <path fill="none" d="M671.0914 293.1232 L723.36 293.1232" clip-path="url(#clipPath2)" stroke="black"/>
      <path fill="black" d="M731.36 293.1232 L719.36 288.1232 L722.36 293.1232 L719.36 298.1232 Z" clip-path="url(#clipPath2)" stroke="none"/>
      <path fill="none" d="M517.7514 421.1616 L569.0622 421.1616" clip-path="url(#clipPath2)" stroke="black"/>
      <path fill="black" d="M577.0622 421.1616 L565.0622 416.1616 L568.0622 421.1616 L565.0622 426.1616 Z" clip-path="url(#clipPath2)" stroke="none"/>
      <path fill="none" d="M659.0316 421.4079 L723.3602 421.7947" clip-path="url(#clipPath2)" stroke="black"/>
      <path fill="black" d="M731.36 421.8428 L719.3903 416.7707 L722.3602 421.7887 L719.3302 426.7705 Z" clip-path="url(#clipPath2)" stroke="none"/>
      <path fill="none" d="M784.3957 377.1616 L784.3957 346.1232" clip-path="url(#clipPath2)" stroke="black"/>
      <path fill="black" d="M784.3957 338.1232 L779.3957 350.1232 L784.3957 347.1232 L789.3957 350.1232 Z" clip-path="url(#clipPath2)" stroke="none"/>
      <path fill="none" d="M618.0557 466.1594 L618.0557 515.8744 L971.1115 515.8744 L971.1115 475.1419" clip-path="url(#clipPath2)" stroke="black"/>
      <path fill="black" d="M971.1115 467.1419 L966.1115 479.1419 L971.1115 476.1419 L976.1115 479.1419 Z" clip-path="url(#clipPath2)" stroke="none"/>
      <text x="746.3393" y="509.2808" clip-path="url(#clipPath2)" fill="black" font-family="sans-serif" stroke="none" xml:space="preserve">keep original</text>
      <path fill="none" d="M837.4315 293.1232 L1083.1115 293.1232 L1083.1115 369.1431" clip-path="url(#clipPath2)" stroke="black"/>
      <path fill="black" d="M1083.1115 377.1431 L1088.1115 365.1431 L1083.1115 368.1431 L1078.1115 365.1431 Z" clip-path="url(#clipPath2)" stroke="none"/>
      <path fill="none" d="M837.4315 293.1232 L1195.1115 293.1232 L1195.1115 369.1431" clip-path="url(#clipPath2)" stroke="black"/>
      <path fill="black" d="M1195.1115 377.1431 L1200.1115 365.1431 L1195.1115 368.1431 L1190.1115 365.1431 Z" clip-path="url(#clipPath2)" stroke="none"/>
      <text x="1116.9204" y="281.8765" clip-path="url(#clipPath2)" fill="black" font-family="sans-serif" stroke="none" xml:space="preserve">Create</text>
      <path fill="none" d="M1262.1869 422.1616 L1326.4912 422.1616" clip-path="url(#clipPath2)" stroke="black"/>
      <path fill="black" d="M1334.4912 422.1616 L1322.4912 417.1616 L1325.4912 422.1616 L1322.4912 427.1616 Z" clip-path="url(#clipPath2)" stroke="none"/>
    </g>
  </g>
</svg>
